<svg xmlns="http://www.w3.org/2000/svg" xmlns:xlink="http://www.w3.org/1999/xlink" width="500" zoomAndPan="magnify" viewBox="0 0 375 374.999991" height="500" preserveAspectRatio="xMidYMid meet" version="1.0"><defs><g/><clipPath id="id1"><path d="M 129.605469 77.332031 L 239.855469 77.332031 L 239.855469 187.582031 L 129.605469 187.582031 Z M 129.605469 77.332031 " clip-rule="nonzero"/></clipPath></defs><rect x="-37.5" width="450" fill="#ffffff" y="-37.499999" height="449.999989" fill-opacity="1"/><rect x="-37.5" width="450" fill="#ffffff" y="-37.499999" height="449.999989" fill-opacity="1"/><rect x="-37.5" width="450" fill="#ffffff" y="-37.499999" height="449.999989" fill-opacity="1"/><rect x="-37.5" width="450" fill="#ffffff" y="-37.499999" height="449.999989" fill-opacity="1"/><g clip-path="url(#id1)"><path fill="#000000" d="M 239.789062 132.003906 C 239.820312 141.824219 237.570312 150.609375 233.105469 158.796875 C 228.09375 167.996094 220.996094 175.207031 211.886719 180.378906 C 203.460938 185.160156 194.371094 187.605469 184.683594 187.523438 C 169.183594 187.386719 155.988281 181.6875 145.0625 170.699219 C 134.945312 159.894531 129.628906 147.109375 129.691406 132.289062 C 129.753906 117.167969 135.1875 104.121094 145.910156 93.453125 C 156.6875 82.730469 169.828125 77.460938 185.023438 77.390625 C 192.109375 77.359375 198.9375 78.773438 205.496094 81.4375 C 212.417969 84.25 218.519531 88.320312 223.792969 93.613281 C 228.238281 98.078125 231.828125 103.164062 234.507812 108.863281 C 238.019531 116.332031 239.835938 124.199219 239.789062 132.003906 Z M 238.296875 132.691406 C 238.046875 117.8125 232.875 105.191406 222.652344 94.65625 C 212.128906 84.363281 199.46875 79.1875 184.78125 78.882812 C 170.136719 79.171875 157.402344 84.183594 146.988281 94.554688 C 136.535156 104.96875 131.46875 117.730469 131.15625 132.433594 C 131.441406 147.101562 136.585938 159.753906 146.84375 170.292969 C 157.363281 180.523438 169.953125 185.769531 184.628906 185.992188 C 199.378906 185.804688 212.136719 180.695312 222.582031 170.253906 C 232.976562 159.859375 238.003906 147.132812 238.296875 132.691406 Z M 238.296875 132.691406 " fill-opacity="1" fill-rule="nonzero"/></g><path fill="#000000" d="M 215.816406 93.023438 C 215.355469 93.3125 214.914062 93.585938 214.484375 93.867188 C 214.269531 94.003906 214.117188 93.976562 213.910156 93.816406 C 211.09375 91.65625 208.050781 89.875 204.832031 88.394531 C 202.46875 87.3125 200.027344 86.441406 197.515625 85.753906 C 195.558594 85.214844 193.574219 84.800781 191.570312 84.511719 C 190.4375 84.347656 189.296875 84.246094 188.152344 84.160156 C 186.167969 84.007812 184.183594 84.066406 182.203125 84.101562 C 181.210938 84.117188 180.21875 84.234375 179.226562 84.355469 C 178.074219 84.503906 176.925781 84.65625 175.78125 84.871094 C 174.097656 85.191406 172.4375 85.597656 170.792969 86.085938 C 169.148438 86.574219 167.53125 87.144531 165.953125 87.816406 C 164.46875 88.453125 163 89.125 161.59375 89.925781 C 160.433594 90.585938 159.277344 91.234375 158.167969 91.976562 C 156.976562 92.773438 155.820312 93.613281 154.691406 94.492188 C 153.957031 95.0625 153.253906 95.675781 152.542969 96.277344 C 151.628906 97.054688 150.78125 97.90625 149.949219 98.769531 C 148.699219 100.066406 147.523438 101.421875 146.425781 102.847656 C 145.296875 104.3125 144.246094 105.832031 143.292969 107.414062 C 142.214844 109.214844 141.230469 111.066406 140.398438 113 C 139.738281 114.546875 139.117188 116.109375 138.609375 117.714844 C 137.945312 119.824219 137.402344 121.964844 137.042969 124.148438 C 136.832031 125.429688 136.675781 126.710938 136.53125 128 C 136.28125 130.308594 136.304688 132.625 136.382812 134.9375 C 136.429688 136.425781 136.574219 137.917969 136.832031 139.394531 C 136.964844 140.164062 137.054688 140.9375 137.222656 141.699219 C 137.265625 141.878906 137.25 142.023438 137.074219 142.128906 C 136.675781 142.371094 136.285156 142.625 135.886719 142.871094 C 135.6875 142.992188 135.601562 142.925781 135.546875 142.699219 C 135.347656 141.824219 135.207031 140.9375 135.066406 140.054688 C 134.957031 139.382812 134.871094 138.707031 134.78125 138.035156 C 134.734375 137.671875 134.703125 137.304688 134.6875 136.941406 C 134.65625 136.3125 134.539062 135.6875 134.558594 135.050781 C 134.582031 134.183594 134.453125 133.324219 134.457031 132.457031 C 134.460938 131.40625 134.519531 130.359375 134.585938 129.3125 C 134.683594 127.710938 134.871094 126.109375 135.125 124.515625 C 135.59375 121.601562 136.308594 118.753906 137.269531 115.96875 C 137.839844 114.316406 138.511719 112.703125 139.25 111.117188 C 140.351562 108.738281 141.65625 106.472656 143.117188 104.300781 C 144.253906 102.617188 145.492188 101.011719 146.828125 99.480469 C 147.933594 98.207031 149.085938 96.980469 150.316406 95.832031 C 152.03125 94.230469 153.839844 92.742188 155.769531 91.398438 C 156.628906 90.796875 157.488281 90.199219 158.386719 89.65625 C 159.070312 89.242188 159.761719 88.84375 160.464844 88.460938 C 161.558594 87.859375 162.667969 87.289062 163.808594 86.773438 C 165.886719 85.824219 168.019531 85.027344 170.203125 84.359375 C 171.988281 83.8125 173.792969 83.371094 175.625 83.035156 C 176.652344 82.847656 177.6875 82.6875 178.726562 82.570312 C 180.03125 82.425781 181.339844 82.339844 182.652344 82.253906 C 183.800781 82.179688 184.953125 82.152344 186.09375 82.210938 C 187.621094 82.285156 189.144531 82.371094 190.664062 82.558594 C 193.128906 82.855469 195.550781 83.328125 197.945312 83.972656 C 200.132812 84.5625 202.269531 85.304688 204.355469 86.191406 C 205.707031 86.769531 207.023438 87.410156 208.324219 88.089844 C 210.722656 89.339844 212.984375 90.804688 215.132812 92.441406 C 215.332031 92.59375 215.53125 92.746094 215.726562 92.898438 C 215.75 92.917969 215.765625 92.949219 215.816406 93.023438 Z M 162.640625 177.59375 C 163.515625 177.96875 164.359375 178.398438 165.238281 178.761719 C 167.359375 179.648438 169.53125 180.398438 171.753906 180.988281 C 174.246094 181.648438 176.769531 182.132812 179.335938 182.40625 C 180.394531 182.515625 181.453125 182.625 182.511719 182.65625 C 184.207031 182.703125 185.90625 182.722656 187.609375 182.609375 C 189.019531 182.511719 190.417969 182.375 191.820312 182.191406 C 193.253906 182.003906 194.671875 181.726562 196.078125 181.402344 C 198.007812 180.957031 199.902344 180.390625 201.769531 179.722656 C 203.324219 179.164062 204.839844 178.519531 206.332031 177.820312 C 207.371094 177.328125 208.398438 176.8125 209.398438 176.238281 C 210.304688 175.714844 211.226562 175.207031 212.09375 174.621094 C 213.617188 173.582031 215.125 172.515625 216.550781 171.335938 C 217.589844 170.476562 218.605469 169.589844 219.582031 168.660156 C 220.253906 168.015625 220.894531 167.335938 221.535156 166.65625 C 222.757812 165.359375 223.890625 163.988281 224.964844 162.566406 C 226.511719 160.519531 227.882812 158.351562 229.082031 156.078125 C 229.757812 154.796875 230.390625 153.492188 230.957031 152.15625 C 231.878906 149.992188 232.644531 147.777344 233.257812 145.511719 C 233.703125 143.875 234.070312 142.21875 234.332031 140.542969 C 234.511719 139.378906 234.671875 138.214844 234.777344 137.039062 C 234.820312 136.523438 234.808594 136.003906 234.878906 135.496094 C 235.019531 134.464844 234.933594 133.433594 234.960938 132.402344 C 234.964844 132.136719 234.871094 132.085938 234.664062 132.210938 C 234.222656 132.480469 233.792969 132.765625 233.355469 133.039062 C 233.207031 133.128906 233.164062 133.25 233.15625 133.410156 C 233.109375 134.789062 233.015625 136.164062 232.878906 137.539062 C 232.765625 138.644531 232.628906 139.75 232.429688 140.84375 C 232.070312 142.820312 231.597656 144.773438 231.007812 146.699219 C 230.371094 148.773438 229.601562 150.796875 228.691406 152.761719 C 227.425781 155.5 225.914062 158.109375 224.15625 160.570312 C 222.742188 162.550781 221.183594 164.414062 219.496094 166.164062 C 218.800781 166.882812 218.085938 167.582031 217.339844 168.25 C 216.546875 168.960938 215.742188 169.660156 214.910156 170.324219 C 213.609375 171.359375 212.253906 172.320312 210.859375 173.230469 C 209.953125 173.820312 209.007812 174.34375 208.0625 174.875 C 206.34375 175.835938 204.558594 176.652344 202.738281 177.398438 C 200.933594 178.136719 199.082031 178.734375 197.199219 179.242188 C 195.980469 179.570312 194.75 179.859375 193.503906 180.074219 C 192.230469 180.292969 190.949219 180.476562 189.660156 180.617188 C 188.386719 180.753906 187.109375 180.804688 185.832031 180.867188 C 184.789062 180.914062 183.738281 180.894531 182.6875 180.816406 C 181.710938 180.742188 180.730469 180.703125 179.753906 180.601562 C 178.515625 180.476562 177.28125 180.308594 176.058594 180.085938 C 174.058594 179.722656 172.09375 179.234375 170.15625 178.621094 C 168.1875 177.996094 166.257812 177.265625 164.386719 176.386719 C 164.234375 176.3125 164.085938 176.226562 163.914062 176.332031 C 163.382812 176.664062 162.851562 176.996094 162.238281 177.378906 C 162.4375 177.484375 162.535156 177.546875 162.640625 177.59375 Z M 162.640625 177.59375 " fill-opacity="1" fill-rule="nonzero"/><path fill="#000000" d="M 175.707031 161.035156 C 175.707031 162.59375 175.214844 163.8125 174.398438 164.9375 C 173.894531 165.636719 173.304688 166.222656 172.601562 166.71875 C 171.796875 167.289062 170.914062 167.628906 169.941406 167.777344 C 168.554688 167.984375 167.273438 167.625 166.027344 167.074219 C 165.601562 166.886719 165.195312 166.660156 164.789062 166.429688 C 163.972656 165.957031 163.554688 165.144531 162.992188 164.453125 C 162.027344 163.269531 161.078125 162.070312 160.082031 160.910156 C 158.832031 159.457031 157.554688 158.039062 156.246094 156.640625 C 155.0625 155.371094 153.828125 154.152344 152.589844 152.941406 C 151.773438 152.140625 150.914062 151.367188 150.011719 150.667969 C 148.804688 149.738281 147.464844 149.109375 145.882812 149.136719 C 145.097656 149.152344 144.417969 149.425781 143.765625 149.8125 C 143.394531 150.03125 143.035156 150.277344 142.75 150.609375 C 142.550781 150.839844 142.292969 151 142.054688 151.179688 C 141.738281 151.417969 141.253906 151.417969 141.027344 151.214844 C 140.765625 150.976562 140.714844 150.585938 140.886719 150.199219 C 141.011719 149.921875 141.183594 149.683594 141.402344 149.472656 C 142.167969 148.730469 143.03125 148.15625 144.0625 147.851562 C 145.371094 147.460938 146.582031 147.765625 147.78125 148.300781 C 149.269531 148.96875 150.5625 149.925781 151.8125 150.949219 C 153.488281 152.324219 155.054688 153.820312 156.539062 155.394531 C 157.804688 156.738281 159.078125 158.078125 160.195312 159.550781 C 160.910156 160.488281 161.589844 161.453125 162.300781 162.394531 C 162.773438 163.019531 163.308594 163.59375 163.886719 164.125 C 164.210938 164.417969 164.5625 164.449219 164.945312 164.242188 C 165.210938 164.097656 165.449219 163.925781 165.679688 163.726562 C 166.546875 162.976562 167.425781 162.242188 168.300781 161.5 C 169.007812 160.894531 169.714844 160.289062 170.429688 159.6875 C 171.214844 159.023438 172.015625 158.371094 172.796875 157.703125 C 173.085938 157.453125 173.371094 157.195312 173.679688 156.972656 C 174.097656 156.671875 174.109375 156.671875 174.402344 157.113281 C 174.898438 157.871094 175.277344 158.683594 175.496094 159.566406 C 175.628906 160.097656 175.742188 160.636719 175.707031 161.035156 Z M 175.707031 161.035156 " fill-opacity="1" fill-rule="nonzero"/><path fill="#000000" d="M 186.28125 171.574219 C 184.855469 171.625 183.707031 171.136719 182.671875 170.296875 C 182.269531 169.972656 181.902344 169.613281 181.554688 169.230469 C 180.839844 168.449219 180.605469 167.503906 180.605469 166.46875 C 180.601562 165.714844 180.664062 164.988281 180.945312 164.269531 C 181.472656 162.929688 182.402344 161.984375 183.640625 161.308594 C 184.835938 160.652344 186.140625 160.328125 187.46875 160.0625 C 188.363281 159.882812 189.277344 159.8125 190.179688 159.691406 C 190.65625 159.625 191.144531 159.605469 191.621094 159.589844 C 192.835938 159.550781 194.050781 159.472656 195.265625 159.449219 C 196.691406 159.425781 198.121094 159.351562 199.515625 158.972656 C 200.355469 158.746094 201.140625 158.382812 201.941406 158.058594 C 203.5625 157.402344 205.175781 156.730469 206.789062 156.0625 C 208.308594 155.429688 209.832031 154.796875 211.351562 154.164062 C 212.074219 153.859375 212.808594 153.683594 213.570312 154.023438 C 213.71875 154.089844 213.816406 153.996094 213.9375 153.941406 C 214.332031 153.765625 214.71875 153.585938 215.175781 153.78125 C 215.867188 154.082031 216.042969 154.886719 215.511719 155.417969 C 215.488281 155.441406 215.464844 155.464844 215.441406 155.488281 C 215.179688 155.734375 214.753906 155.765625 214.554688 156.027344 C 214.34375 156.300781 214.164062 156.59375 213.902344 156.828125 C 213.671875 157.039062 213.367188 157.097656 213.09375 157.207031 C 210.875 158.109375 208.65625 159.019531 206.421875 159.890625 C 204.886719 160.488281 203.367188 161.121094 201.839844 161.738281 C 200.703125 162.195312 199.695312 162.871094 198.722656 163.601562 C 197.597656 164.441406 196.628906 165.449219 195.601562 166.398438 C 194.160156 167.734375 192.605469 168.929688 190.898438 169.921875 C 189.960938 170.46875 189 170.953125 187.964844 171.296875 C 187.390625 171.492188 186.8125 171.617188 186.28125 171.574219 Z M 200.03125 161.167969 C 200.070312 161.15625 200.113281 161.144531 200.15625 161.132812 C 200.144531 161.117188 200.128906 161.097656 200.117188 161.082031 C 200.085938 161.105469 200.050781 161.132812 200.019531 161.160156 C 200.003906 161.175781 199.988281 161.195312 199.972656 161.210938 C 199.992188 161.199219 200.011719 161.183594 200.03125 161.167969 Z M 181.984375 168.273438 C 182.664062 168.242188 183.332031 168.097656 184 167.984375 C 185.46875 167.746094 186.878906 167.320312 188.238281 166.714844 C 189.953125 165.945312 191.621094 165.070312 193.292969 164.214844 C 194.996094 163.339844 196.679688 162.433594 198.371094 161.539062 C 198.476562 161.484375 198.582031 161.429688 198.664062 161.351562 C 198.730469 161.28125 198.707031 161.195312 198.59375 161.171875 C 198.492188 161.15625 198.394531 161.191406 198.300781 161.21875 C 197.820312 161.359375 197.34375 161.5 196.859375 161.628906 C 193.488281 162.542969 190.144531 163.542969 186.835938 164.664062 C 184.839844 165.34375 183.050781 166.375 181.414062 167.6875 C 181.273438 167.796875 181.152344 167.886719 181.257812 168.089844 C 181.351562 168.273438 181.457031 168.394531 181.6875 168.304688 C 181.777344 168.269531 181.882812 168.28125 181.984375 168.273438 Z M 200.589844 159.832031 C 200.402344 159.15625 200.351562 159.101562 199.789062 159.292969 C 198.609375 159.703125 197.378906 159.75 196.15625 159.84375 C 195.230469 159.914062 194.296875 159.839844 193.363281 159.941406 C 192.65625 160.015625 191.9375 159.972656 191.222656 160.035156 C 190.429688 160.105469 189.632812 160.148438 188.84375 160.257812 C 187.34375 160.464844 185.859375 160.75 184.460938 161.363281 C 182.9375 162.027344 181.738281 163.019531 181.253906 164.6875 C 181.09375 165.238281 180.964844 165.800781 181.023438 166.414062 C 181.378906 166.253906 181.511719 165.925781 181.738281 165.695312 C 182.339844 165.070312 182.992188 164.503906 183.675781 163.972656 C 184.332031 163.464844 185.019531 162.996094 185.816406 162.710938 C 186.742188 162.382812 187.683594 162.125 188.636719 161.902344 C 189.882812 161.609375 191.136719 161.371094 192.398438 161.164062 C 193.527344 160.976562 194.65625 160.777344 195.785156 160.59375 C 196.75 160.441406 197.71875 160.308594 198.6875 160.15625 C 199.320312 160.058594 199.953125 159.941406 200.589844 159.832031 Z M 182.789062 169.8125 C 182.929688 170.074219 183.175781 170.1875 183.390625 170.328125 C 184.773438 171.234375 186.25 171.433594 187.824219 170.921875 C 188.714844 170.632812 189.546875 170.222656 190.359375 169.761719 C 192.371094 168.628906 194.1875 167.234375 195.824219 165.613281 C 197.128906 164.320312 198.523438 163.144531 200.085938 162.175781 C 200.453125 161.945312 200.84375 161.761719 201.230469 161.5625 C 201.394531 161.476562 201.441406 161.371094 201.34375 161.203125 C 201.246094 161.035156 201.113281 161.023438 200.964844 161.101562 C 200.859375 161.15625 200.765625 161.230469 200.671875 161.292969 C 198.9375 162.4375 197.207031 163.59375 195.46875 164.730469 C 193.644531 165.921875 191.851562 167.15625 189.976562 168.265625 C 188.25 169.285156 186.402344 169.855469 184.390625 169.867188 C 183.859375 169.871094 183.328125 169.894531 182.789062 169.8125 Z M 181.6875 168.714844 C 181.910156 169.023438 182.054688 169.339844 182.402344 169.355469 C 182.871094 169.371094 183.324219 169.492188 183.792969 169.476562 C 184.441406 169.457031 185.089844 169.488281 185.738281 169.382812 C 186.445312 169.265625 187.144531 169.132812 187.816406 168.875 C 189.097656 168.382812 190.265625 167.679688 191.410156 166.933594 C 192.648438 166.125 193.871094 165.292969 195.109375 164.480469 C 196.582031 163.511719 198.066406 162.554688 199.542969 161.585938 C 199.636719 161.523438 199.792969 161.488281 199.773438 161.304688 C 199.585938 161.28125 199.453125 161.394531 199.3125 161.46875 C 198.328125 161.988281 197.34375 162.523438 196.355469 163.039062 C 195.175781 163.65625 193.988281 164.25 192.8125 164.875 C 191.503906 165.574219 190.175781 166.226562 188.835938 166.867188 C 186.894531 167.800781 184.847656 168.320312 182.71875 168.585938 C 182.402344 168.628906 182.070312 168.644531 181.6875 168.714844 Z M 199.359375 160.535156 C 199.285156 160.449219 199.21875 160.457031 199.15625 160.464844 C 198.597656 160.550781 198.042969 160.644531 197.484375 160.722656 C 196.613281 160.839844 195.75 160.996094 194.886719 161.152344 C 193.921875 161.324219 192.953125 161.460938 191.988281 161.625 C 190.761719 161.828125 189.539062 162.070312 188.332031 162.367188 C 187.21875 162.640625 186.09375 162.90625 185.085938 163.480469 C 183.519531 164.378906 182.300781 165.675781 181.089844 166.980469 C 180.964844 167.113281 181.070312 167.222656 181.167969 167.332031 C 181.402344 167.171875 181.640625 167.019531 181.867188 166.851562 C 182.59375 166.320312 183.347656 165.839844 184.132812 165.402344 C 185.246094 164.785156 186.441406 164.378906 187.640625 163.980469 C 189.15625 163.476562 190.675781 162.992188 192.210938 162.554688 C 193.96875 162.050781 195.726562 161.554688 197.484375 161.054688 C 198.101562 160.878906 198.722656 160.710938 199.359375 160.535156 Z M 213.523438 154.519531 C 213.335938 154.300781 213.128906 154.265625 212.910156 154.246094 C 212.300781 154.195312 211.769531 154.433594 211.230469 154.65625 C 209.542969 155.359375 207.851562 156.058594 206.164062 156.757812 C 204.503906 157.445312 202.84375 158.128906 201.1875 158.820312 C 200.882812 158.949219 200.863281 159.078125 201.050781 159.503906 C 201.164062 159.765625 201.175781 159.765625 201.511719 159.625 C 202.796875 159.082031 204.078125 158.519531 205.375 158.003906 C 207.785156 157.046875 210.160156 155.996094 212.550781 154.992188 C 212.863281 154.859375 213.210938 154.769531 213.523438 154.519531 Z M 202.175781 161.160156 C 202.21875 161.144531 202.296875 161.117188 202.375 161.085938 C 203.378906 160.683594 204.382812 160.28125 205.382812 159.878906 C 207.980469 158.839844 210.574219 157.800781 213.167969 156.761719 C 213.464844 156.644531 213.730469 156.472656 213.929688 156.21875 C 214.042969 156.078125 214.203125 155.902344 214.089844 155.734375 C 213.96875 155.550781 213.777344 155.726562 213.636719 155.777344 C 212.042969 156.359375 210.449219 156.941406 208.867188 157.550781 C 207.09375 158.226562 205.328125 158.914062 203.59375 159.6875 C 203.019531 159.945312 202.445312 160.21875 201.875 160.492188 C 201.789062 160.53125 201.675781 160.550781 201.65625 160.671875 C 201.625 160.855469 201.933594 161.167969 202.175781 161.160156 Z M 214.675781 155.453125 C 214.796875 155.457031 215.078125 155.289062 215.21875 155.128906 C 215.476562 154.835938 215.441406 154.453125 215.144531 154.222656 C 214.910156 154.039062 214.359375 154.089844 214.183594 154.304688 C 214.136719 154.363281 214.128906 154.425781 214.152344 154.488281 C 214.261719 154.765625 214.371094 155.042969 214.484375 155.316406 C 214.515625 155.398438 214.582031 155.449219 214.675781 155.453125 Z M 199.753906 160.414062 C 199.726562 160.402344 199.699219 160.378906 199.671875 160.378906 C 199.648438 160.378906 199.621094 160.402344 199.59375 160.414062 C 199.621094 160.425781 199.648438 160.449219 199.671875 160.449219 C 199.699219 160.449219 199.726562 160.425781 199.753906 160.414062 Z M 198.972656 161.109375 C 198.980469 161.121094 198.992188 161.144531 199 161.140625 C 199.023438 161.136719 199.046875 161.125 199.070312 161.117188 C 199.0625 161.105469 199.050781 161.082031 199.042969 161.085938 C 199.019531 161.089844 198.996094 161.101562 198.972656 161.109375 Z M 198.972656 161.109375 " fill-opacity="1" fill-rule="nonzero"/><path fill="#000000" d="M 184.109375 126.726562 C 183.644531 125.9375 183.144531 125.167969 182.761719 124.332031 C 182.347656 123.421875 181.96875 122.5 181.761719 121.515625 C 181.742188 121.421875 181.714844 121.320312 181.710938 121.222656 C 181.6875 120.761719 181.949219 120.382812 182.328125 120.324219 C 182.871094 120.238281 183.296875 120.484375 183.390625 120.996094 C 183.617188 122.261719 184.152344 123.40625 184.757812 124.519531 C 185.257812 125.441406 185.855469 126.300781 186.523438 127.113281 C 187.035156 127.730469 187.566406 128.332031 188.136719 128.882812 C 189.660156 130.359375 191.34375 131.632812 193.191406 132.683594 C 194.378906 133.359375 195.585938 134 196.820312 134.585938 C 198.351562 135.320312 199.910156 135.996094 201.480469 136.648438 C 203.601562 137.527344 205.757812 138.316406 207.921875 139.085938 C 208.015625 139.121094 208.117188 139.128906 208.210938 139.164062 C 208.621094 139.316406 208.851562 139.851562 208.695312 140.292969 C 208.558594 140.6875 208.042969 140.925781 207.625 140.777344 C 205.921875 140.15625 204.207031 139.566406 202.515625 138.90625 C 201.058594 138.335938 199.632812 137.6875 198.195312 137.070312 C 196.941406 136.53125 195.703125 135.953125 194.496094 135.3125 C 192.730469 134.375 190.984375 133.410156 189.394531 132.183594 C 188.496094 131.488281 187.632812 130.757812 186.824219 129.96875 C 186.558594 129.710938 186.257812 129.523438 185.921875 129.367188 C 184.511719 128.722656 183.0625 128.171875 181.59375 127.679688 C 179.890625 127.109375 178.160156 126.632812 176.371094 126.40625 C 175.660156 126.316406 174.949219 126.214844 174.238281 126.238281 C 172.554688 126.289062 170.894531 126.5 169.285156 127.03125 C 168.976562 127.132812 168.742188 127.253906 168.703125 127.613281 C 168.679688 127.816406 168.554688 127.980469 168.421875 128.132812 C 167.796875 128.851562 167.285156 129.648438 166.8125 130.472656 C 166.132812 131.660156 165.578125 132.90625 165.101562 134.191406 C 164.589844 135.566406 164.171875 136.972656 164.015625 138.429688 C 163.902344 139.480469 163.894531 140.554688 164.136719 141.609375 C 164.230469 142.011719 164.28125 142.425781 164.371094 142.832031 C 164.425781 143.082031 164.554688 143.167969 164.785156 143.152344 C 165.398438 143.109375 166.011719 143.066406 166.625 143.019531 C 167.253906 142.96875 167.882812 142.875 168.511719 142.863281 C 169.894531 142.839844 171.28125 142.820312 172.664062 142.871094 C 173.359375 142.894531 174.054688 142.945312 174.75 143.019531 C 175.460938 143.089844 176.171875 143.148438 176.878906 143.234375 C 178.335938 143.414062 179.761719 143.714844 181.175781 144.089844 C 183.15625 144.621094 185.074219 145.335938 186.960938 146.136719 C 189.367188 147.15625 191.710938 148.320312 194.015625 149.554688 C 195.394531 150.296875 196.761719 151.058594 198.097656 151.875 C 198.507812 152.128906 198.925781 152.371094 199.339844 152.621094 C 199.925781 152.96875 199.980469 153.652344 199.453125 154.0625 C 199.164062 154.289062 198.894531 154.3125 198.574219 154.121094 C 197.800781 153.660156 197.035156 153.1875 196.257812 152.738281 C 193.851562 151.339844 191.398438 150.03125 188.882812 148.847656 C 187.421875 148.164062 185.941406 147.515625 184.429688 146.949219 C 182.484375 146.21875 180.511719 145.574219 178.453125 145.21875 C 177.242188 145.007812 176.027344 144.851562 174.804688 144.722656 C 172.695312 144.507812 170.582031 144.503906 168.464844 144.566406 C 167.523438 144.59375 166.574219 144.660156 165.632812 144.761719 C 165.253906 144.800781 164.871094 144.816406 164.496094 144.886719 C 163.367188 145.097656 163.203125 144.765625 162.929688 143.957031 C 162.648438 143.109375 162.496094 142.222656 162.375 141.328125 C 162.257812 140.445312 162.257812 139.5625 162.304688 138.683594 C 162.355469 137.691406 162.574219 136.710938 162.84375 135.75 C 163.015625 135.128906 163.214844 134.507812 163.425781 133.898438 C 163.5 133.675781 163.453125 133.566406 163.257812 133.457031 C 162.015625 132.773438 160.832031 131.992188 159.75 131.082031 C 158.921875 130.390625 158.117188 129.667969 157.410156 128.839844 C 156.671875 127.976562 155.960938 127.101562 155.34375 126.148438 C 154.574219 124.953125 154.007812 123.664062 153.550781 122.316406 C 153.164062 121.179688 152.894531 120.011719 152.808594 118.820312 C 152.71875 117.597656 152.734375 116.371094 152.847656 115.136719 C 152.957031 113.972656 153.175781 112.839844 153.484375 111.71875 C 154.066406 109.605469 154.855469 107.574219 156.09375 105.75 C 157.78125 103.269531 160.03125 101.492188 162.828125 100.402344 C 164.1875 99.871094 165.585938 99.511719 167.023438 99.339844 C 168.324219 99.183594 169.636719 99.019531 170.957031 99.113281 C 172.644531 99.230469 174.335938 99.328125 175.996094 99.6875 C 176.261719 99.746094 176.472656 99.683594 176.671875 99.480469 C 178.078125 98.035156 179.730469 96.914062 181.460938 95.910156 C 182.871094 95.085938 184.378906 94.472656 185.941406 93.980469 C 187.039062 93.636719 188.160156 93.417969 189.289062 93.226562 C 189.730469 93.15625 190.179688 93.105469 190.628906 93.105469 C 191.015625 93.101562 191.386719 92.984375 191.769531 93.007812 C 193.195312 93.097656 194.617188 93.152344 196.027344 93.441406 C 199.046875 94.066406 201.820312 95.273438 204.449219 96.851562 C 206.113281 97.847656 207.652344 99.011719 208.980469 100.425781 C 209.902344 101.410156 210.707031 102.488281 211.375 103.667969 C 212.210938 105.148438 212.769531 106.722656 213.066406 108.390625 C 213.152344 108.863281 213.21875 109.34375 213.226562 109.820312 C 213.238281 110.703125 213.3125 111.589844 213.140625 112.464844 C 213.082031 112.75 213.1875 112.921875 213.464844 113.042969 C 214.414062 113.449219 215.347656 113.894531 216.238281 114.417969 C 217.378906 115.085938 218.441406 115.851562 219.414062 116.742188 C 220.398438 117.644531 221.304688 118.613281 222.023438 119.746094 C 223.070312 121.398438 223.761719 123.175781 224.058594 125.117188 C 224.183594 125.941406 224.074219 126.773438 224.222656 127.59375 C 224.050781 129.601562 223.710938 131.570312 222.996094 133.476562 C 222.621094 134.472656 222.207031 135.453125 221.738281 136.40625 C 221.335938 137.230469 220.800781 137.980469 220.226562 138.691406 C 219.339844 139.78125 218.332031 140.75 217.21875 141.601562 C 216.316406 142.289062 215.359375 142.890625 214.359375 143.433594 C 212.804688 144.273438 211.175781 144.957031 209.507812 145.523438 C 207.886719 146.078125 206.21875 146.480469 204.539062 146.8125 C 203.675781 146.984375 202.804688 147.105469 201.933594 147.226562 C 201.648438 147.265625 201.347656 147.308594 201.082031 147.066406 C 200.796875 146.808594 200.644531 146.519531 200.753906 146.140625 C 200.867188 145.75 201.1875 145.601562 201.550781 145.558594 C 203.167969 145.359375 204.765625 145.078125 206.34375 144.675781 C 208.542969 144.113281 210.6875 143.402344 212.71875 142.394531 C 214.167969 141.675781 215.535156 140.832031 216.777344 139.78125 C 218.070312 138.683594 219.203125 137.457031 220.054688 135.984375 C 220.585938 135.058594 220.984375 134.066406 221.355469 133.066406 C 221.777344 131.925781 222.105469 130.757812 222.3125 129.558594 C 222.390625 129.121094 222.480469 128.675781 222.457031 128.222656 C 222.4375 127.855469 222.546875 127.488281 222.523438 127.128906 C 222.496094 126.648438 222.5 126.164062 222.433594 125.6875 C 222.3125 124.851562 222.152344 124.015625 221.867188 123.214844 C 221.417969 121.96875 220.789062 120.824219 219.972656 119.777344 C 218.683594 118.121094 217.078125 116.851562 215.269531 115.816406 C 214.285156 115.25 213.273438 114.757812 212.199219 114.375 C 211.53125 114.140625 211.238281 113.574219 211.371094 112.875 C 211.640625 111.46875 211.609375 110.066406 211.382812 108.660156 C 211.09375 106.851562 210.417969 105.199219 209.417969 103.6875 C 208.605469 102.460938 207.644531 101.363281 206.519531 100.40625 C 205.5 99.542969 204.421875 98.765625 203.269531 98.089844 C 201.222656 96.886719 199.066406 95.917969 196.761719 95.332031 C 195.523438 95.015625 194.257812 94.84375 192.972656 94.753906 C 192.101562 94.691406 191.242188 94.738281 190.386719 94.808594 C 188.894531 94.925781 187.433594 95.238281 186.011719 95.722656 C 184.667969 96.183594 183.382812 96.757812 182.152344 97.464844 C 181.082031 98.082031 180.054688 98.757812 179.101562 99.542969 C 178.875 99.730469 178.589844 99.855469 178.457031 100.144531 C 178.542969 100.25 178.65625 100.273438 178.769531 100.300781 C 180.523438 100.707031 182.21875 101.289062 183.902344 101.921875 C 184.390625 102.105469 184.65625 102.496094 184.582031 102.902344 C 184.476562 103.476562 183.949219 103.789062 183.363281 103.550781 C 182.625 103.25 181.867188 102.996094 181.113281 102.738281 C 179.882812 102.316406 178.632812 101.984375 177.367188 101.703125 C 176.671875 101.546875 175.984375 101.359375 175.269531 101.277344 C 174.476562 101.1875 173.699219 101.03125 172.898438 100.972656 C 171.835938 100.894531 170.777344 100.769531 169.714844 100.808594 C 167.167969 100.90625 164.683594 101.296875 162.363281 102.421875 C 161.449219 102.867188 160.613281 103.441406 159.824219 104.089844 C 157.972656 105.617188 156.773438 107.59375 155.898438 109.785156 C 155.285156 111.316406 154.839844 112.902344 154.601562 114.535156 C 154.527344 115.023438 154.453125 115.523438 154.464844 116.023438 C 154.476562 116.734375 154.40625 117.4375 154.449219 118.152344 C 154.550781 119.78125 154.929688 121.335938 155.535156 122.84375 C 156.21875 124.542969 157.207031 126.046875 158.410156 127.433594 C 159.929688 129.1875 161.738281 130.582031 163.703125 131.789062 C 164.082031 132.023438 164.191406 131.996094 164.347656 131.605469 C 164.726562 130.675781 165.273438 129.839844 165.742188 128.957031 C 165.78125 128.886719 165.839844 128.820312 165.871094 128.746094 C 165.890625 128.707031 165.886719 128.640625 165.867188 128.605469 C 165.824219 128.53125 165.753906 128.546875 165.691406 128.582031 C 165.21875 128.820312 164.773438 129.117188 164.339844 129.421875 C 164.15625 129.550781 163.96875 129.636719 163.738281 129.636719 C 163.34375 129.636719 163.101562 129.496094 162.953125 129.148438 C 162.800781 128.800781 162.859375 128.457031 163.167969 128.207031 C 163.6875 127.785156 164.257812 127.4375 164.839844 127.117188 C 166.464844 126.21875 168.171875 125.511719 169.984375 125.089844 C 170.972656 124.859375 171.96875 124.695312 172.984375 124.621094 C 173.363281 124.59375 173.738281 124.53125 174.125 124.53125 C 175.226562 124.535156 176.3125 124.671875 177.394531 124.851562 C 179.253906 125.164062 181.046875 125.714844 182.828125 126.324219 C 183.25 126.46875 183.648438 126.699219 184.105469 126.730469 C 184.109375 126.742188 184.113281 126.753906 184.121094 126.765625 C 184.125 126.769531 184.140625 126.769531 184.148438 126.773438 C 184.136719 126.757812 184.121094 126.742188 184.109375 126.726562 Z M 207.28125 129.324219 C 207.5625 129.21875 207.789062 129.117188 208.027344 129.046875 C 208.800781 128.8125 209.511719 128.921875 210.121094 129.46875 C 210.765625 130.046875 210.976562 130.761719 210.757812 131.59375 C 210.523438 132.480469 210.097656 133.226562 209.203125 133.601562 C 208.84375 133.753906 208.472656 133.824219 208.085938 133.828125 C 207.570312 133.832031 207.050781 133.753906 206.546875 133.765625 C 205.757812 133.789062 204.953125 133.839844 204.195312 134.140625 C 203.878906 134.269531 203.828125 134.242188 203.839844 133.925781 C 203.875 132.84375 203.5 131.875 203.074219 130.910156 C 202.828125 130.347656 202.609375 129.777344 202.609375 129.140625 C 202.609375 128.632812 202.714844 128.179688 203.007812 127.777344 C 203.589844 126.976562 204.304688 126.382812 205.367188 126.433594 C 206.046875 126.464844 206.59375 126.773438 206.929688 127.359375 C 207.242188 127.898438 207.40625 128.492188 207.257812 129.128906 C 207.246094 129.171875 207.269531 129.222656 207.28125 129.324219 Z M 208.464844 122.453125 C 207.59375 122.0625 206.714844 122.796875 206.726562 123.628906 C 206.738281 124.582031 207.25 125.230469 208.203125 125.417969 C 208.578125 125.492188 208.960938 125.5 209.339844 125.550781 C 209.800781 125.609375 210.226562 125.804688 210.664062 126.019531 C 210.757812 125.703125 210.835938 125.421875 210.925781 125.140625 C 211.074219 124.675781 211.351562 124.277344 211.601562 123.867188 C 212.078125 123.082031 212.054688 122.488281 211.507812 121.792969 C 211.140625 121.320312 210.632812 121.085938 210.054688 121.257812 C 209.554688 121.402344 209.199219 121.761719 209.128906 122.324219 C 209.117188 122.441406 209.089844 122.554688 208.980469 122.6875 C 208.796875 122.601562 208.632812 122.527344 208.464844 122.453125 Z M 205.378906 118.75 C 205.253906 118.382812 204.917969 118.15625 204.578125 118.109375 C 203.851562 118.003906 203.207031 119.039062 203.496094 119.636719 C 203.570312 119.785156 203.628906 119.945312 203.71875 120.082031 C 203.949219 120.433594 204.125 120.804688 204.222656 121.210938 C 204.269531 121.417969 204.386719 121.460938 204.542969 121.390625 C 204.992188 121.1875 205.46875 121.15625 205.949219 121.105469 C 206.6875 121.03125 207.105469 120.484375 207.027344 119.757812 C 206.980469 119.339844 206.695312 119.058594 206.285156 119.015625 C 206.011719 118.988281 205.753906 119.035156 205.472656 119.195312 C 205.433594 119.007812 205.421875 118.875 205.378906 118.75 Z M 205.378906 118.75 " fill-opacity="1" fill-rule="nonzero"/><g fill="#000000" fill-opacity="1"><g transform="translate(103.016131, 280.674013)"><g><path d="M 117.25 -22.921875 C 116.40625 -22.847656 115.546875 -22.773438 114.671875 -22.703125 C 113.878906 -22.628906 113.082031 -22.554688 112.28125 -22.484375 C 106.5 -21.878906 100.742188 -21.101562 95.015625 -20.15625 C 88.441406 -19.113281 81.875 -17.867188 75.3125 -16.421875 C 74.175781 -16.171875 73.117188 -15.710938 72.140625 -15.046875 C 64.328125 -9.835938 56.265625 -5.148438 47.953125 -0.984375 C 39.648438 3.171875 31.128906 6.890625 22.390625 10.171875 C 18.566406 11.671875 14.679688 12.925781 10.734375 13.9375 C 8.910156 14.414062 7.050781 14.71875 5.15625 14.84375 C 4.914062 14.863281 4.671875 14.875 4.421875 14.875 C 3.566406 14.90625 2.753906 14.769531 1.984375 14.46875 C 0.785156 13.945312 0.425781 13.078125 0.90625 11.859375 C 1.269531 10.984375 1.816406 10.210938 2.546875 9.546875 C 3.960938 8.148438 5.53125 6.957031 7.25 5.96875 C 11.488281 3.46875 15.867188 1.269531 20.390625 -0.625 C 24.878906 -2.5625 29.425781 -4.34375 34.03125 -5.96875 C 34.15625 -5.988281 34.269531 -6.023438 34.375 -6.078125 C 34.519531 -6.148438 34.679688 -6.210938 34.859375 -6.265625 C 35.535156 -6.460938 35.984375 -6.910156 36.203125 -7.609375 C 36.597656 -8.648438 37.015625 -9.6875 37.453125 -10.71875 C 37.515625 -10.882812 37.585938 -11.070312 37.671875 -11.28125 C 38.609375 -13.613281 39.5625 -15.960938 40.53125 -18.328125 C 42.351562 -22.785156 44.171875 -27.253906 45.984375 -31.734375 C 47.191406 -34.554688 48.15625 -37.460938 48.875 -40.453125 C 48.914062 -40.722656 49 -40.992188 49.125 -41.265625 C 49.351562 -41.597656 49.65625 -41.710938 50.03125 -41.609375 C 50.175781 -41.648438 50.34375 -41.648438 50.53125 -41.609375 C 50.675781 -41.585938 50.796875 -41.523438 50.890625 -41.421875 C 50.984375 -41.316406 51.03125 -41.191406 51.03125 -41.046875 C 51.0625 -40.597656 51.039062 -40.160156 50.96875 -39.734375 C 50.425781 -37.097656 49.613281 -34.535156 48.53125 -32.046875 C 46.6875 -27.566406 44.832031 -23.070312 42.96875 -18.5625 C 42.21875 -16.71875 41.457031 -14.875 40.6875 -13.03125 C 40.539062 -12.675781 40.394531 -12.320312 40.25 -11.96875 C 39.800781 -10.851562 39.335938 -9.722656 38.859375 -8.578125 C 38.835938 -8.535156 38.828125 -8.5 38.828125 -8.46875 C 38.742188 -8.34375 38.695312 -8.222656 38.6875 -8.109375 C 38.675781 -8.003906 38.734375 -7.898438 38.859375 -7.796875 C 38.878906 -7.773438 38.914062 -7.753906 38.96875 -7.734375 C 39.019531 -7.753906 39.082031 -7.773438 39.15625 -7.796875 C 39.1875 -7.796875 39.210938 -7.796875 39.234375 -7.796875 C 40.410156 -8.171875 41.570312 -8.546875 42.71875 -8.921875 C 44.75 -9.585938 46.773438 -10.25 48.796875 -10.90625 C 55.972656 -13.113281 63.210938 -15.039062 70.515625 -16.6875 C 71.390625 -16.882812 72.179688 -17.234375 72.890625 -17.734375 C 74.960938 -19.203125 77 -20.707031 79 -22.25 C 81.007812 -23.800781 82.9375 -25.4375 84.78125 -27.15625 C 86.789062 -28.96875 88.617188 -30.972656 90.265625 -33.171875 C 91.234375 -34.429688 91.96875 -35.832031 92.46875 -37.375 C 93.144531 -39.738281 92.710938 -41.820312 91.171875 -43.625 C 90.597656 -44.289062 89.953125 -44.863281 89.234375 -45.34375 C 88.523438 -45.820312 87.773438 -46.234375 86.984375 -46.578125 C 84.265625 -47.742188 81.4375 -48.492188 78.5 -48.828125 C 75.9375 -49.140625 73.367188 -49.296875 70.796875 -49.296875 C 68.453125 -49.296875 66.113281 -49.203125 63.78125 -49.015625 C 57.769531 -48.535156 51.828125 -47.625 45.953125 -46.28125 C 41.941406 -45.40625 38.007812 -44.316406 34.15625 -43.015625 C 30.3125 -41.722656 26.570312 -40.09375 22.9375 -38.125 C 21.59375 -37.4375 20.289062 -36.679688 19.03125 -35.859375 C 17.78125 -35.035156 16.582031 -34.140625 15.4375 -33.171875 C 14.5625 -32.367188 13.753906 -31.519531 13.015625 -30.625 C 12.453125 -30.019531 12.046875 -29.320312 11.796875 -28.53125 C 11.398438 -27.3125 11.664062 -26.265625 12.59375 -25.390625 C 13.164062 -24.847656 13.828125 -24.441406 14.578125 -24.171875 C 15.835938 -23.640625 17.15625 -23.328125 18.53125 -23.234375 C 19.25 -23.171875 19.984375 -23.128906 20.734375 -23.109375 C 21.734375 -23.066406 22.726562 -23.019531 23.71875 -22.96875 C 24.53125 -22.914062 25.320312 -22.835938 26.09375 -22.734375 C 26.1875 -22.710938 26.269531 -22.664062 26.34375 -22.59375 C 26.414062 -22.519531 26.476562 -22.429688 26.53125 -22.328125 C 26.550781 -22.128906 26.5 -22 26.375 -21.9375 C 26.25 -21.875 26.125 -21.851562 26 -21.875 L 25.78125 -21.875 C 25.707031 -21.875 25.632812 -21.875 25.5625 -21.875 C 24.832031 -21.90625 24.125 -21.921875 23.4375 -21.921875 C 23.207031 -21.921875 22.976562 -21.921875 22.75 -21.921875 C 22.40625 -21.921875 22.046875 -21.921875 21.671875 -21.921875 L 21.640625 -21.921875 C 20.617188 -21.921875 19.609375 -21.941406 18.609375 -21.984375 C 17.617188 -22.035156 16.625 -22.160156 15.625 -22.359375 C 14.5 -22.609375 13.410156 -22.984375 12.359375 -23.484375 C 11.796875 -23.753906 11.265625 -24.085938 10.765625 -24.484375 C 9.273438 -25.734375 8.898438 -27.289062 9.640625 -29.15625 C 10.160156 -30.382812 10.910156 -31.460938 11.890625 -32.390625 C 13.160156 -33.703125 14.550781 -34.882812 16.0625 -35.9375 C 20.195312 -38.769531 24.597656 -41.054688 29.265625 -42.796875 C 33.023438 -44.242188 36.835938 -45.457031 40.703125 -46.4375 C 44.578125 -47.425781 48.492188 -48.242188 52.453125 -48.890625 C 58.554688 -49.960938 64.703125 -50.515625 70.890625 -50.546875 C 71.078125 -50.546875 71.273438 -50.546875 71.484375 -50.546875 C 73.828125 -50.546875 76.160156 -50.425781 78.484375 -50.1875 C 80.816406 -49.945312 83.113281 -49.503906 85.375 -48.859375 C 87.238281 -48.335938 89.007812 -47.59375 90.6875 -46.625 C 91.5625 -46.101562 92.34375 -45.476562 93.03125 -44.75 C 95.332031 -42.363281 95.882812 -39.570312 94.6875 -36.375 C 94.132812 -34.957031 93.382812 -33.640625 92.4375 -32.421875 C 90.695312 -30.117188 88.753906 -28.015625 86.609375 -26.109375 C 83.992188 -23.734375 81.265625 -21.5 78.421875 -19.40625 C 78.347656 -19.34375 78.25 -19.28125 78.125 -19.21875 C 77.976562 -19.125 77.828125 -19.015625 77.671875 -18.890625 C 77.523438 -18.765625 77.425781 -18.59375 77.375 -18.375 C 77.476562 -18.289062 77.566406 -18.25 77.640625 -18.25 C 77.765625 -18.28125 77.890625 -18.304688 78.015625 -18.328125 C 78.140625 -18.378906 78.265625 -18.414062 78.390625 -18.4375 C 85.742188 -19.9375 93.113281 -21.171875 100.5 -22.140625 C 104.070312 -22.585938 107.625 -23 111.15625 -23.375 C 112.375 -23.5 113.582031 -23.625 114.78125 -23.75 C 115.207031 -23.800781 115.644531 -23.828125 116.09375 -23.828125 C 116.507812 -23.847656 116.929688 -23.804688 117.359375 -23.703125 C 117.410156 -23.679688 117.460938 -23.640625 117.515625 -23.578125 C 117.566406 -23.515625 117.59375 -23.460938 117.59375 -23.421875 C 117.613281 -23.265625 117.585938 -23.148438 117.515625 -23.078125 C 117.441406 -23.003906 117.351562 -22.953125 117.25 -22.921875 Z M 32.46875 4.34375 C 32.46875 4.34375 32.476562 4.34375 32.5 4.34375 C 32.6875 4.269531 32.859375 4.171875 33.015625 4.046875 C 33.171875 3.921875 33.28125 3.75 33.34375 3.53125 C 33.28125 3.53125 33.238281 3.53125 33.21875 3.53125 C 32.71875 3.550781 32.398438 3.484375 32.265625 3.328125 C 32.128906 3.179688 32.125 2.898438 32.25 2.484375 C 32.320312 2.210938 32.421875 1.941406 32.546875 1.671875 C 32.578125 1.585938 32.601562 1.523438 32.625 1.484375 C 32.8125 0.984375 33 0.492188 33.1875 0.015625 C 33.625 -1.054688 34.046875 -2.144531 34.453125 -3.25 C 34.484375 -3.289062 34.519531 -3.351562 34.5625 -3.4375 C 34.632812 -3.601562 34.679688 -3.765625 34.703125 -3.921875 C 34.734375 -4.085938 34.695312 -4.257812 34.59375 -4.4375 C 34.570312 -4.4375 34.550781 -4.4375 34.53125 -4.4375 C 34.40625 -4.414062 34.289062 -4.375 34.1875 -4.3125 C 34.113281 -4.289062 34.050781 -4.269531 34 -4.25 C 30.84375 -3.101562 27.71875 -1.890625 24.625 -0.609375 C 21.53125 0.660156 18.476562 2.039062 15.46875 3.53125 C 13.019531 4.695312 10.65625 6.003906 8.375 7.453125 C 7.050781 8.242188 5.84375 9.191406 4.75 10.296875 C 4.15625 10.835938 3.703125 11.492188 3.390625 12.265625 C 3.304688 12.515625 3.316406 12.75 3.421875 12.96875 C 3.523438 13.195312 3.722656 13.351562 4.015625 13.4375 C 4.328125 13.519531 4.660156 13.5625 5.015625 13.5625 C 5.390625 13.5625 5.757812 13.53125 6.125 13.46875 C 8.539062 13.039062 10.929688 12.441406 13.296875 11.671875 C 18.441406 10.023438 23.503906 8.15625 28.484375 6.0625 C 29.816406 5.519531 31.144531 4.945312 32.46875 4.34375 Z M 67.03125 -13.84375 C 67.050781 -13.894531 67.09375 -13.929688 67.15625 -13.953125 C 67.238281 -14.003906 67.304688 -14.066406 67.359375 -14.140625 C 67.410156 -14.222656 67.40625 -14.335938 67.34375 -14.484375 C 67.21875 -14.460938 67.070312 -14.425781 66.90625 -14.375 C 66.070312 -14.144531 65.242188 -13.929688 64.421875 -13.734375 C 62.148438 -13.140625 59.894531 -12.53125 57.65625 -11.90625 C 51.425781 -10.164062 45.25 -8.234375 39.125 -6.109375 C 38.59375 -5.941406 38.148438 -5.707031 37.796875 -5.40625 C 37.441406 -5.101562 37.179688 -4.675781 37.015625 -4.125 C 36.929688 -3.851562 36.828125 -3.582031 36.703125 -3.3125 C 36.617188 -3.1875 36.554688 -3.0625 36.515625 -2.9375 C 36.359375 -2.5625 36.109375 -2.039062 35.765625 -1.375 C 35.410156 -0.695312 35.054688 0.015625 34.703125 0.765625 C 34.359375 1.515625 34.117188 2.15625 33.984375 2.6875 C 33.847656 3.21875 33.90625 3.519531 34.15625 3.59375 C 34.5 3.519531 34.820312 3.382812 35.125 3.1875 C 35.269531 3.113281 35.421875 3.039062 35.578125 2.96875 C 42.328125 0 48.925781 -3.285156 55.375 -6.890625 C 57.9375 -8.367188 60.472656 -9.863281 62.984375 -11.375 C 64.085938 -12.050781 65.1875 -12.710938 66.28125 -13.359375 C 66.300781 -13.390625 66.328125 -13.40625 66.359375 -13.40625 C 66.597656 -13.53125 66.820312 -13.675781 67.03125 -13.84375 Z M 67.03125 -13.84375 "/></g></g><g transform="translate(177.943415, 280.674013)"><g><path d="M 9.6875 -6.515625 C 9.03125 -5.867188 8.265625 -5.316406 7.390625 -4.859375 C 6.515625 -4.398438 5.78125 -4.097656 5.1875 -3.953125 C 4.601562 -3.816406 4 -3.738281 3.375 -3.71875 C 2.382812 -3.675781 1.46875 -3.8125 0.625 -4.125 C -0.738281 -4.675781 -1.210938 -5.734375 -0.796875 -7.296875 C -0.398438 -8.648438 0.398438 -9.703125 1.609375 -10.453125 C 2.828125 -11.210938 4.078125 -11.582031 5.359375 -11.5625 C 5.359375 -11.5625 5.375 -11.5625 5.40625 -11.5625 C 5.726562 -11.582031 6.035156 -11.5625 6.328125 -11.5 C 6.828125 -11.3125 7.144531 -11.015625 7.28125 -10.609375 C 7.414062 -10.203125 7.328125 -9.75 7.015625 -9.25 C 6.285156 -8.15625 5.300781 -7.546875 4.0625 -7.421875 C 3.226562 -7.335938 2.429688 -7.378906 1.671875 -7.546875 C 1.515625 -7.566406 1.378906 -7.523438 1.265625 -7.421875 C 1.160156 -7.316406 1.09375 -7.191406 1.0625 -7.046875 C 0.84375 -6.078125 1.144531 -5.457031 1.96875 -5.1875 C 2.988281 -4.832031 4.046875 -4.832031 5.140625 -5.1875 C 6.410156 -5.582031 7.617188 -6.328125 8.765625 -7.421875 C 9.910156 -8.515625 10.566406 -9.023438 10.734375 -8.953125 C 10.910156 -8.878906 10.96875 -8.671875 10.90625 -8.328125 C 10.75 -7.765625 10.34375 -7.160156 9.6875 -6.515625 Z M 2.453125 -9.25 C 2.378906 -9.175781 2.328125 -9.085938 2.296875 -8.984375 C 2.273438 -8.890625 2.3125 -8.804688 2.40625 -8.734375 C 2.800781 -8.503906 3.234375 -8.421875 3.703125 -8.484375 C 4.171875 -8.546875 4.5625 -8.71875 4.875 -9 C 5.195312 -9.289062 5.335938 -9.648438 5.296875 -10.078125 C 5.265625 -10.222656 5.1875 -10.3125 5.0625 -10.34375 C 4.9375 -10.382812 4.8125 -10.394531 4.6875 -10.375 C 3.851562 -10.226562 3.109375 -9.851562 2.453125 -9.25 Z M 2.453125 -9.25 "/></g></g><g transform="translate(187.829536, 280.674013)"><g><path d="M 8.21875 -8.09375 C 8.59375 -8.46875 8.90625 -8.675781 9.15625 -8.71875 C 9.40625 -8.769531 9.566406 -8.734375 9.640625 -8.609375 C 9.710938 -8.484375 9.664062 -8.3125 9.5 -8.09375 C 8.5 -6.894531 7.378906 -5.859375 6.140625 -4.984375 C 4.910156 -4.117188 3.640625 -3.617188 2.328125 -3.484375 C 1.023438 -3.347656 0.238281 -4.0625 -0.03125 -5.625 C -0.238281 -7.175781 0.695312 -10.332031 2.78125 -15.09375 C 4.863281 -19.863281 6.515625 -23.769531 7.734375 -26.8125 C 7.828125 -27.082031 7.976562 -27.320312 8.1875 -27.53125 C 8.457031 -27.800781 8.78125 -27.863281 9.15625 -27.71875 C 9.28125 -27.65625 9.40625 -27.5625 9.53125 -27.4375 C 9.65625 -27.3125 9.691406 -27.09375 9.640625 -26.78125 C 4.285156 -14.082031 1.691406 -7.175781 1.859375 -6.0625 C 2.035156 -4.957031 2.753906 -4.679688 4.015625 -5.234375 C 5.273438 -5.796875 6.25 -6.367188 6.9375 -6.953125 C 7.625 -7.535156 8.050781 -7.914062 8.21875 -8.09375 Z M 8.21875 -8.09375 "/></g></g><g transform="translate(196.305781, 280.674013)"><g><path d="M 6.75 -7.15625 C 6.144531 -6.4375 5.425781 -5.773438 4.59375 -5.171875 C 3.769531 -4.578125 2.835938 -4.175781 1.796875 -3.96875 C 0.753906 -3.757812 -0.0507812 -3.832031 -0.625 -4.1875 C -1.207031 -4.550781 -1.320312 -5.359375 -0.96875 -6.609375 C -0.507812 -7.898438 0.113281 -9.128906 0.90625 -10.296875 C 1.082031 -10.546875 1.34375 -10.71875 1.6875 -10.8125 C 1.9375 -10.875 2.148438 -10.832031 2.328125 -10.6875 C 2.515625 -10.550781 2.585938 -10.375 2.546875 -10.15625 C 2.378906 -9.75 2.191406 -9.34375 1.984375 -8.9375 C 1.785156 -8.53125 1.648438 -8.265625 1.578125 -8.140625 C 1.179688 -7.410156 0.90625 -6.648438 0.75 -5.859375 C 0.75 -5.410156 1.351562 -5.382812 2.5625 -5.78125 C 3.769531 -6.175781 4.945312 -6.898438 6.09375 -7.953125 C 7.238281 -9.015625 7.785156 -9.328125 7.734375 -8.890625 C 7.679688 -8.453125 7.351562 -7.875 6.75 -7.15625 Z M 3.78125 -12.84375 C 3.726562 -12.789062 3.613281 -12.734375 3.4375 -12.671875 C 3.257812 -12.609375 3.070312 -12.5625 2.875 -12.53125 C 2.675781 -12.507812 2.519531 -12.539062 2.40625 -12.625 C 2.289062 -12.71875 2.285156 -12.898438 2.390625 -13.171875 C 2.578125 -13.648438 2.769531 -14.066406 2.96875 -14.421875 C 3.164062 -14.785156 3.421875 -15.179688 3.734375 -15.609375 C 3.941406 -15.796875 4.160156 -15.898438 4.390625 -15.921875 C 4.628906 -15.941406 4.828125 -15.878906 4.984375 -15.734375 C 5.148438 -15.585938 5.195312 -15.394531 5.125 -15.15625 C 4.875 -14.257812 4.425781 -13.488281 3.78125 -12.84375 Z M 3.78125 -12.84375 "/></g></g><g transform="translate(202.930501, 280.674013)"><g><path d="M 15 -9.109375 C 15.082031 -9.128906 15.179688 -9.125 15.296875 -9.09375 C 15.410156 -9.070312 15.5 -9.023438 15.5625 -8.953125 C 15.625 -8.828125 15.617188 -8.703125 15.546875 -8.578125 C 15.472656 -8.453125 15.363281 -8.351562 15.21875 -8.28125 C 14.195312 -7.789062 13.171875 -7.28125 12.140625 -6.75 C 10.929688 -6.125 9.710938 -5.5 8.484375 -4.875 C 8.304688 -4.800781 8.132812 -4.71875 7.96875 -4.625 C 7.695312 -4.476562 7.425781 -4.34375 7.15625 -4.21875 C 6.53125 -3.90625 6.113281 -3.425781 5.90625 -2.78125 C 5.363281 -1.238281 4.789062 0.285156 4.1875 1.796875 C 3.425781 3.828125 2.46875 5.757812 1.3125 7.59375 C 0.664062 8.644531 -0.113281 9.578125 -1.03125 10.390625 C -2.132812 11.421875 -3.394531 12.070312 -4.8125 12.34375 C -7.15625 12.820312 -9.410156 12.671875 -11.578125 11.890625 C -12.472656 11.566406 -13.242188 11.054688 -13.890625 10.359375 C -14.765625 9.421875 -14.804688 8.414062 -14.015625 7.34375 C -13.660156 6.882812 -13.269531 6.457031 -12.84375 6.0625 C -11.875 5.1875 -10.832031 4.40625 -9.71875 3.71875 C -5.695312 1.144531 -1.566406 -1.21875 2.671875 -3.375 C 2.691406 -3.375 2.703125 -3.375 2.703125 -3.375 C 3.140625 -3.601562 3.578125 -3.84375 4.015625 -4.09375 C 4.078125 -4.144531 4.171875 -4.265625 4.296875 -4.453125 C 4.421875 -4.640625 4.515625 -4.828125 4.578125 -5.015625 C 4.640625 -5.203125 4.617188 -5.335938 4.515625 -5.421875 C 4.421875 -5.503906 4.191406 -5.460938 3.828125 -5.296875 C 3.671875 -5.242188 3.53125 -5.179688 3.40625 -5.109375 C 3.082031 -4.953125 2.753906 -4.8125 2.421875 -4.6875 C 0.492188 -4.21875 -0.46875 -4.960938 -0.46875 -6.921875 C -0.425781 -8.109375 -0.078125 -9.171875 0.578125 -10.109375 C 1.242188 -11.054688 2.09375 -11.796875 3.125 -12.328125 C 4.15625 -12.867188 5.269531 -13.078125 6.46875 -12.953125 C 6.59375 -12.953125 6.71875 -12.9375 6.84375 -12.90625 C 7.175781 -12.863281 7.507812 -12.84375 7.84375 -12.84375 C 8.175781 -12.84375 8.515625 -12.914062 8.859375 -13.0625 C 9.234375 -13.207031 9.515625 -13.160156 9.703125 -12.921875 C 9.890625 -12.691406 9.921875 -12.394531 9.796875 -12.03125 C 9.472656 -11.320312 9.148438 -10.609375 8.828125 -9.890625 C 8.597656 -9.441406 8.382812 -8.984375 8.1875 -8.515625 C 7.957031 -8.015625 7.738281 -7.503906 7.53125 -6.984375 C 7.21875 -6.304688 7.164062 -5.945312 7.375 -5.90625 C 7.59375 -5.875 7.960938 -5.992188 8.484375 -6.265625 C 8.554688 -6.285156 8.632812 -6.304688 8.71875 -6.328125 C 9.664062 -6.785156 10.617188 -7.234375 11.578125 -7.671875 C 12.253906 -7.984375 12.929688 -8.296875 13.609375 -8.609375 C 14.054688 -8.816406 14.519531 -8.984375 15 -9.109375 Z M 2.921875 0.015625 C 3.273438 -0.984375 3.425781 -1.632812 3.375 -1.9375 C 3.320312 -2.25 3.101562 -2.332031 2.71875 -2.1875 C 2.332031 -2.039062 1.828125 -1.769531 1.203125 -1.375 C 0.804688 -1.125 0.367188 -0.875 -0.109375 -0.625 C -2.972656 0.925781 -5.757812 2.582031 -8.46875 4.34375 C -9.675781 5.050781 -10.75 5.898438 -11.6875 6.890625 C -12.675781 7.953125 -12.640625 8.898438 -11.578125 9.734375 C -10.953125 10.234375 -10.257812 10.582031 -9.5 10.78125 C -8.738281 10.976562 -7.898438 11.078125 -6.984375 11.078125 C -5.898438 11.148438 -4.898438 10.945312 -3.984375 10.46875 C -3.066406 10 -2.21875 9.289062 -1.4375 8.34375 C -0.976562 7.71875 -0.535156 7.070312 -0.109375 6.40625 C 1.140625 4.363281 2.148438 2.234375 2.921875 0.015625 Z M 1.796875 -6 C 2.085938 -5.875 2.515625 -5.976562 3.078125 -6.3125 C 3.640625 -6.65625 4.210938 -7.125 4.796875 -7.71875 C 5.390625 -8.3125 5.859375 -8.921875 6.203125 -9.546875 C 6.546875 -10.171875 6.632812 -10.695312 6.46875 -11.125 C 6.425781 -11.25 6.351562 -11.363281 6.25 -11.46875 C 6.070312 -11.675781 5.867188 -11.773438 5.640625 -11.765625 C 5.421875 -11.753906 5.1875 -11.71875 4.9375 -11.65625 C 4.113281 -11.320312 3.382812 -10.753906 2.75 -9.953125 C 2.113281 -9.160156 1.691406 -8.375 1.484375 -7.59375 C 1.273438 -6.8125 1.378906 -6.28125 1.796875 -6 Z M 1.796875 -6 "/></g></g><g transform="translate(217.43694, 280.674013)"><g><path d="M 13.796875 -7.921875 C 13.585938 -7.734375 13.367188 -7.566406 13.140625 -7.421875 C 12.421875 -6.972656 11.769531 -6.617188 11.1875 -6.359375 C 10.601562 -6.097656 9.914062 -5.828125 9.125 -5.546875 C 7.945312 -5.203125 7.191406 -5.285156 6.859375 -5.796875 C 6.523438 -6.304688 6.46875 -7.015625 6.6875 -7.921875 C 7.007812 -9.203125 7.191406 -10.144531 7.234375 -10.75 C 7.285156 -11.351562 7.085938 -11.5625 6.640625 -11.375 C 6.203125 -11.1875 5.394531 -10.566406 4.21875 -9.515625 C 2.570312 -8.097656 1.164062 -6.476562 0 -4.65625 C -0.144531 -4.40625 -0.320312 -4.195312 -0.53125 -4.03125 C -0.75 -3.875 -1.019531 -3.796875 -1.34375 -3.796875 C -1.644531 -3.796875 -1.863281 -3.875 -2 -4.03125 C -2.132812 -4.195312 -2.140625 -4.414062 -2.015625 -4.6875 C -1.347656 -6.15625 -0.664062 -7.613281 0.03125 -9.0625 C 1.226562 -11.582031 2.410156 -14.085938 3.578125 -16.578125 C 4.453125 -18.441406 5.316406 -20.3125 6.171875 -22.1875 C 6.691406 -23.28125 7.195312 -24.375 7.6875 -25.46875 C 7.738281 -25.5625 7.789062 -25.660156 7.84375 -25.765625 C 7.894531 -25.890625 7.945312 -26.015625 8 -26.140625 C 8.0625 -26.265625 8.132812 -26.398438 8.21875 -26.546875 C 8.289062 -26.671875 8.414062 -26.769531 8.59375 -26.84375 C 8.78125 -26.925781 8.96875 -26.976562 9.15625 -27 C 9.34375 -27.019531 9.488281 -27.007812 9.59375 -26.96875 C 9.738281 -26.863281 9.816406 -26.753906 9.828125 -26.640625 C 9.847656 -26.523438 9.832031 -26.410156 9.78125 -26.296875 C 9.757812 -26.265625 9.75 -26.222656 9.75 -26.171875 C 9.519531 -25.503906 9.28125 -24.859375 9.03125 -24.234375 C 7.59375 -20.765625 6.023438 -17.351562 4.328125 -14 C 4.203125 -13.769531 4.054688 -13.492188 3.890625 -13.171875 C 3.640625 -12.722656 3.40625 -12.28125 3.1875 -11.84375 C 2.976562 -11.40625 2.910156 -11.113281 2.984375 -10.96875 C 3.054688 -10.820312 3.390625 -10.9375 3.984375 -11.3125 C 4.171875 -11.4375 4.335938 -11.5625 4.484375 -11.6875 C 4.960938 -12 5.429688 -12.296875 5.890625 -12.578125 C 6.296875 -12.847656 6.75 -13 7.25 -13.03125 C 8.4375 -13.101562 9.101562 -12.5625 9.25 -11.40625 C 9.3125 -10.945312 9.296875 -10.488281 9.203125 -10.03125 C 9.109375 -9.582031 9 -9.140625 8.875 -8.703125 C 8.851562 -8.578125 8.832031 -8.453125 8.8125 -8.328125 C 8.613281 -7.554688 8.664062 -7.113281 8.96875 -7 C 9.28125 -6.882812 9.71875 -6.945312 10.28125 -7.1875 C 10.84375 -7.425781 11.410156 -7.710938 11.984375 -8.046875 C 12.378906 -8.253906 12.726562 -8.429688 13.03125 -8.578125 C 13.332031 -8.722656 13.554688 -8.785156 13.703125 -8.765625 C 13.972656 -8.722656 14.097656 -8.613281 14.078125 -8.4375 C 14.054688 -8.257812 13.960938 -8.085938 13.796875 -7.921875 Z M 13.796875 -7.921875 "/></g></g><g transform="translate(230.39761, 280.674013)"><g><path d="M 10.609375 -8.203125 C 9.097656 -6.410156 7.613281 -5.085938 6.15625 -4.234375 C 4.695312 -3.390625 3.140625 -3.113281 1.484375 -3.40625 C -0.171875 -3.695312 -0.851562 -4.8125 -0.5625 -6.75 C -0.351562 -7.71875 -0.078125 -8.664062 0.265625 -9.59375 C 1.140625 -11.757812 2.023438 -13.910156 2.921875 -16.046875 C 3.210938 -16.816406 3.523438 -17.59375 3.859375 -18.375 C 3.929688 -18.539062 4.003906 -18.710938 4.078125 -18.890625 C 4.203125 -19.171875 4.328125 -19.457031 4.453125 -19.75 C 4.628906 -20.25 4.429688 -20.507812 3.859375 -20.53125 C 3.523438 -20.53125 3.203125 -20.53125 2.890625 -20.53125 C 2.742188 -20.53125 2.578125 -20.53125 2.390625 -20.53125 C 2.222656 -20.507812 2.050781 -20.488281 1.875 -20.46875 C 1.570312 -20.445312 1.273438 -20.4375 0.984375 -20.4375 C 0.703125 -20.4375 0.4375 -20.507812 0.1875 -20.65625 C 0.113281 -20.675781 0.0546875 -20.71875 0.015625 -20.78125 C -0.015625 -20.84375 -0.03125 -20.910156 -0.03125 -20.984375 C -0.0078125 -21.035156 0.0234375 -21.09375 0.078125 -21.15625 C 0.128906 -21.21875 0.191406 -21.257812 0.265625 -21.28125 C 0.515625 -21.382812 0.773438 -21.457031 1.046875 -21.5 C 1.753906 -21.53125 2.453125 -21.554688 3.140625 -21.578125 C 3.410156 -21.578125 3.648438 -21.578125 3.859375 -21.578125 C 4.304688 -21.578125 4.640625 -21.59375 4.859375 -21.625 C 5.085938 -21.664062 5.269531 -21.785156 5.40625 -21.984375 C 5.539062 -22.191406 5.695312 -22.503906 5.875 -22.921875 C 5.976562 -23.148438 6.101562 -23.398438 6.25 -23.671875 C 6.625 -24.460938 7 -25.273438 7.375 -26.109375 C 7.539062 -26.472656 7.710938 -26.832031 7.890625 -27.1875 C 8.046875 -27.539062 8.28125 -27.8125 8.59375 -28 C 8.894531 -28.144531 9.160156 -28.132812 9.390625 -27.96875 C 9.460938 -27.925781 9.515625 -27.851562 9.546875 -27.75 C 9.585938 -27.644531 9.609375 -27.554688 9.609375 -27.484375 C 9.609375 -27.035156 9.492188 -26.597656 9.265625 -26.171875 C 9.222656 -26.078125 9.175781 -25.96875 9.125 -25.84375 C 8.976562 -25.4375 8.816406 -25.023438 8.640625 -24.609375 C 8.316406 -23.835938 8.003906 -23.050781 7.703125 -22.25 C 7.628906 -22.101562 7.628906 -21.972656 7.703125 -21.859375 C 7.773438 -21.742188 7.882812 -21.6875 8.03125 -21.6875 C 8.832031 -21.664062 9.617188 -21.65625 10.390625 -21.65625 C 10.785156 -21.65625 11.179688 -21.65625 11.578125 -21.65625 C 12.828125 -21.632812 13.328125 -21.457031 13.078125 -21.125 C 12.910156 -20.9375 12.726562 -20.828125 12.53125 -20.796875 C 12.332031 -20.765625 12.128906 -20.765625 11.921875 -20.796875 C 11.796875 -20.796875 11.671875 -20.796875 11.546875 -20.796875 C 10.273438 -20.722656 9.019531 -20.675781 7.78125 -20.65625 C 7.195312 -20.65625 6.8125 -20.394531 6.625 -19.875 C 6.414062 -19.375 6.21875 -18.875 6.03125 -18.375 C 5.75 -17.71875 5.484375 -17.078125 5.234375 -16.453125 C 4.984375 -15.867188 4.734375 -15.273438 4.484375 -14.671875 C 3.835938 -13.148438 3.210938 -11.628906 2.609375 -10.109375 C 2.242188 -9.109375 1.953125 -8.085938 1.734375 -7.046875 C 1.253906 -5.160156 1.984375 -4.4375 3.921875 -4.875 C 5.828125 -5.320312 7.820312 -6.691406 9.90625 -8.984375 C 10.8125 -9.554688 11.046875 -9.296875 10.609375 -8.203125 Z M 10.609375 -8.203125 "/></g></g><g transform="translate(240.045921, 280.674013)"><g><path d="M 0.421875 -3 C -0.648438 -3 -1.1875 -3.5625 -1.1875 -4.6875 C -1.1875 -6.0625 -0.296875 -8.476562 1.484375 -11.9375 C 1.546875 -12.082031 1.664062 -12.15625 1.84375 -12.15625 C 2.5625 -12.15625 2.921875 -11.875 2.921875 -11.3125 C 2.921875 -11.101562 2.859375 -10.851562 2.734375 -10.5625 C 2.691406 -10.476562 2.097656 -8.984375 0.953125 -6.078125 C 0.765625 -5.597656 0.671875 -5.25 0.671875 -5.03125 C 0.671875 -4.78125 0.785156 -4.65625 1.015625 -4.65625 C 1.847656 -4.65625 4.019531 -6.707031 7.53125 -10.8125 C 7.976562 -11.375 8.421875 -11.65625 8.859375 -11.65625 C 9.503906 -11.65625 9.828125 -11.414062 9.828125 -10.9375 C 9.828125 -10.757812 9.628906 -10.070312 9.234375 -8.875 C 8.691406 -7.257812 8.421875 -6.328125 8.421875 -6.078125 C 8.421875 -5.703125 8.546875 -5.515625 8.796875 -5.515625 C 9.421875 -5.515625 11.238281 -6.625 14.25 -8.84375 C 14.414062 -8.988281 14.5625 -9.0625 14.6875 -9.0625 C 14.96875 -9.0625 15.109375 -8.828125 15.109375 -8.359375 C 15.109375 -8.234375 15.070312 -8.128906 15 -8.046875 C 13.394531 -6.679688 12.035156 -5.640625 10.921875 -4.921875 C 9.898438 -4.265625 8.992188 -3.9375 8.203125 -3.9375 L 7.96875 -3.9375 C 6.800781 -4.1875 6.21875 -5.097656 6.21875 -6.671875 C 4.96875 -5.578125 3.929688 -4.691406 3.109375 -4.015625 C 2.296875 -3.335938 1.398438 -3 0.421875 -3 Z M 0.421875 -3 "/></g></g><g transform="translate(254.008792, 280.674013)"><g><path d="M 17.75 -8.515625 C 18.144531 -8.753906 18.453125 -8.8125 18.671875 -8.6875 C 18.898438 -8.570312 18.816406 -8.222656 18.421875 -7.640625 C 17.921875 -6.972656 17.03125 -6.257812 15.75 -5.5 C 14.46875 -4.738281 13.332031 -4.40625 12.34375 -4.5 C 11.363281 -4.601562 11.078125 -5.332031 11.484375 -6.6875 C 11.898438 -8.050781 12.125 -8.8125 12.15625 -8.96875 C 12.1875 -9.132812 12.15625 -9.226562 12.0625 -9.25 C 11.96875 -9.28125 11.742188 -9.171875 11.390625 -8.921875 C 10.367188 -8.210938 9.375 -7.472656 8.40625 -6.703125 C 7.988281 -6.390625 7.578125 -6.054688 7.171875 -5.703125 C 6.921875 -5.472656 6.660156 -5.25 6.390625 -5.03125 C 6.390625 -5.03125 6.378906 -5.019531 6.359375 -5 C 6.054688 -4.695312 5.691406 -4.5 5.265625 -4.40625 C 5.066406 -4.34375 4.859375 -4.316406 4.640625 -4.328125 C 4.429688 -4.347656 4.253906 -4.429688 4.109375 -4.578125 C 3.941406 -4.753906 3.878906 -4.9375 3.921875 -5.125 C 3.960938 -5.3125 4.101562 -5.585938 4.34375 -5.953125 C 4.582031 -6.328125 4.847656 -6.738281 5.140625 -7.1875 C 5.429688 -7.632812 5.59375 -7.910156 5.625 -8.015625 C 5.65625 -8.117188 5.640625 -8.222656 5.578125 -8.328125 C 5.492188 -8.421875 5.398438 -8.445312 5.296875 -8.40625 C 5.203125 -8.375 4.84375 -8.132812 4.21875 -7.6875 C 3.601562 -7.238281 2.757812 -6.613281 1.6875 -5.8125 C 1.1875 -5.4375 0.695312 -5.050781 0.21875 -4.65625 C 0.09375 -4.53125 -0.0390625 -4.414062 -0.1875 -4.3125 C -0.539062 -4.019531 -0.925781 -3.863281 -1.34375 -3.84375 C -1.644531 -3.8125 -1.867188 -3.875 -2.015625 -4.03125 C -2.160156 -4.195312 -2.1875 -4.414062 -2.09375 -4.6875 C -2.019531 -4.894531 -1.929688 -5.082031 -1.828125 -5.25 C -1.773438 -5.320312 -1.738281 -5.398438 -1.71875 -5.484375 C -0.820312 -7.296875 0.0625 -9.113281 0.9375 -10.9375 C 0.957031 -10.976562 0.976562 -11.039062 1 -11.125 C 1.101562 -11.3125 1.207031 -11.5 1.3125 -11.6875 C 1.582031 -11.976562 1.90625 -12.070312 2.28125 -11.96875 C 2.707031 -11.84375 2.867188 -11.59375 2.765625 -11.21875 C 2.566406 -10.65625 2.367188 -10.097656 2.171875 -9.546875 C 2.066406 -9.296875 1.96875 -9.046875 1.875 -8.796875 C 1.695312 -8.359375 1.640625 -8.078125 1.703125 -7.953125 C 1.765625 -7.828125 2.046875 -7.910156 2.546875 -8.203125 C 2.890625 -8.429688 3.222656 -8.65625 3.546875 -8.875 C 3.941406 -9.15625 4.328125 -9.40625 4.703125 -9.625 C 5.285156 -9.976562 5.875 -10.28125 6.46875 -10.53125 C 6.757812 -10.65625 7.0625 -10.75 7.375 -10.8125 C 7.6875 -10.875 7.976562 -10.800781 8.25 -10.59375 C 8.457031 -10.425781 8.546875 -10.234375 8.515625 -10.015625 C 8.484375 -9.804688 8.425781 -9.601562 8.34375 -9.40625 C 8.175781 -9.03125 8.109375 -8.789062 8.140625 -8.6875 C 8.171875 -8.59375 8.257812 -8.578125 8.40625 -8.640625 C 8.550781 -8.703125 8.8125 -8.84375 9.1875 -9.0625 C 9.5625 -9.289062 9.960938 -9.539062 10.390625 -9.8125 C 10.929688 -10.164062 11.503906 -10.5 12.109375 -10.8125 C 12.609375 -11.144531 13.140625 -11.34375 13.703125 -11.40625 C 14.484375 -11.46875 14.800781 -11.15625 14.65625 -10.46875 C 14.519531 -9.78125 14.25 -8.960938 13.84375 -8.015625 C 13.4375 -7.078125 13.394531 -6.5 13.71875 -6.28125 C 14.039062 -6.070312 14.753906 -6.363281 15.859375 -7.15625 C 16.972656 -7.957031 17.601562 -8.410156 17.75 -8.515625 Z M 17.75 -8.515625 "/></g></g></g></svg>